<svg width="16" height="16" viewBox="0 0 16 16" fill="none" xmlns="http://www.w3.org/2000/svg">
<path opacity="0.5" d="M2.56665 10.4867C2.09331 10.88 1.73998 11.5067 1.45998 12.3067C1.30665 12.7267 1.19331 13.18 1.09998 13.6267C1.03998 13.8933 1.00665 14.1067 0.986646 14.2333C0.926646 14.6667 1.29998 15.04 1.73331 14.98C1.85998 14.96 2.06665 14.9267 2.33998 14.8667C2.78665 14.7733 3.23331 14.6533 3.65998 14.5067C4.45998 14.2267 5.07998 13.8733 5.47998 13.4C6.17331 12.5667 6.14665 11.3133 5.37331 10.5533C4.98665 10.18 4.48665 9.97334 3.96665 9.96C3.43998 9.94 2.93331 10.12 2.53331 10.4533L2.56665 10.4867ZM3.41998 11.5067C3.56665 11.38 3.75331 11.3133 3.94665 11.32C4.13998 11.32 4.31998 11.4 4.45998 11.5333C4.71331 11.7867 4.72665 12.2533 4.46665 12.56C4.25331 12.8067 3.81331 13.0533 3.21998 13.26C2.85331 13.38 2.45998 13.4867 2.05998 13.5667C1.81998 13.6133 1.63998 13.64 1.53998 13.6533L2.28665 14.4C2.29331 14.3 2.32665 14.1133 2.37331 13.88C2.45331 13.48 2.55331 13.0867 2.67998 12.72C2.87998 12.1267 3.12665 11.6867 3.37331 11.48L3.41998 11.5067Z" fill="url(#paint0_linear_707_36716)"/>
<path d="M8.46662 9.52667L6.46662 7.52667C6.19995 7.26 5.77995 7.26 5.51995 7.52667C5.25328 7.78667 5.25328 8.20667 5.51995 8.46667L7.51995 10.4667C7.77995 10.7267 8.19995 10.7267 8.45995 10.4667C8.71995 10.2 8.71995 9.78 8.45995 9.52L8.46662 9.52667ZM8.22662 10.62C9.19328 10.2467 10.1266 9.78 11.0066 9.22667C11.3133 9.02667 11.4066 8.61334 11.2133 8.30667C11.0133 7.99334 10.6 7.9 10.2933 8.09334C9.48662 8.6 8.63328 9.02667 7.73995 9.36667C7.39328 9.49334 7.21995 9.88 7.35328 10.2267C7.47995 10.5667 7.86662 10.74 8.21328 10.6067L8.22662 10.62ZM7.31995 9.99334V13.3267C7.31995 13.74 7.69328 14.0533 8.09995 13.98C8.19995 13.96 8.37328 13.92 8.59328 13.86C8.95328 13.76 9.31995 13.64 9.66662 13.4867C10.34 13.1933 10.8666 12.8267 11.1866 12.3467C11.4933 11.8733 11.62 11.28 11.6133 10.58C11.6066 10.1067 11.54 9.61334 11.4333 9.12C11.3666 8.81334 11.3 8.57334 11.2533 8.42667C11.14 8.07334 10.76 7.88 10.4133 7.99334C10.06 8.1 9.86662 8.48 9.97995 8.82667C10.0133 8.92667 10.0666 9.12667 10.12 9.38667C10.2066 9.79334 10.26 10.2067 10.26 10.5733C10.26 11.02 10.1866 11.3733 10.0466 11.58C9.89328 11.8 9.55995 12.0267 9.09995 12.2267C8.81995 12.3467 8.51328 12.4467 8.20662 12.5267C8.01995 12.5733 7.87995 12.6 7.80662 12.6133L8.58662 13.2667V9.93334C8.58662 9.56 8.28662 9.26667 7.91995 9.26667C7.54662 9.26667 7.25329 9.56 7.25329 9.93334L7.31995 9.99334ZM6.60662 8.22667C6.93995 7.34667 7.36662 6.5 7.87328 5.70667C8.59328 4.55334 9.58662 3.60667 10.7733 2.96C11.9533 2.30667 13.2866 1.96667 14.6333 1.97334L13.9666 1.30667C13.9666 3.9 12.94 6.28667 10.26 8.08C9.95328 8.28 9.86662 8.69334 10.0733 9C10.2733 9.3 10.6866 9.38667 10.9933 9.18C14.08 7.10667 15.2866 4.29334 15.2866 1.28667C15.2866 0.920003 14.9866 0.620003 14.62 0.620003C13.04 0.606669 11.48 1 10.1 1.76C8.71328 2.52 7.54662 3.62 6.71328 4.96C6.15995 5.82 5.69329 6.74 5.31995 7.70667C5.18662 8.04667 5.35329 8.43334 5.69995 8.56667C6.03995 8.69334 6.42662 8.52667 6.55995 8.18L6.60662 8.22667ZM5.97995 7.32H2.64662L3.29995 8.1C3.30662 8.02667 3.33995 7.88667 3.38662 7.7C3.46662 7.39334 3.56662 7.08667 3.68662 6.80667C3.87995 6.34 4.11329 6.00667 4.33329 5.86C4.53995 5.72 4.88662 5.64667 5.33995 5.64667C5.70662 5.64667 6.11329 5.7 6.52662 5.78667C6.77995 5.84 6.97995 5.89334 7.08662 5.92667C7.43329 6.03334 7.80662 5.84 7.91995 5.49334C8.02662 5.14 7.83328 4.76667 7.48662 4.65334C7.33995 4.60667 7.09995 4.54 6.79328 4.47334C6.29995 4.36667 5.80662 4.3 5.33329 4.29334C4.63329 4.28667 4.03995 4.40667 3.56662 4.72C3.07995 5.04 2.71995 5.56667 2.42662 6.24C2.27329 6.58 2.15329 6.94667 2.05329 7.31334C1.99329 7.52667 1.95329 7.7 1.93329 7.80667C1.85329 8.21334 2.17329 8.58667 2.58662 8.58667H5.91995C6.28662 8.58667 6.58662 8.28667 6.58662 7.92C6.58662 7.54667 6.28662 7.25334 5.91995 7.25334L5.97995 7.32Z" fill="url(#paint1_linear_707_36716)"/>
<defs>
<linearGradient id="paint0_linear_707_36716" x1="3.47903" y1="9.9585" x2="3.47903" y2="14.9864" gradientUnits="userSpaceOnUse">
<stop stop-color="#FAFAFA"/>
<stop offset="1" stop-color="#8C8C8C"/>
</linearGradient>
<linearGradient id="paint1_linear_707_36716" x1="8.60379" y1="0.619675" x2="8.60379" y2="13.9907" gradientUnits="userSpaceOnUse">
<stop stop-color="#FAFAFA"/>
<stop offset="1" stop-color="#8C8C8C"/>
</linearGradient>
</defs>
</svg>
