<svg width="16" height="16" viewBox="0 0 16 16" fill="none" xmlns="http://www.w3.org/2000/svg">
<path opacity="0.5" d="M7.33335 1.66667V8C7.33335 8.36667 7.62668 8.66667 8.00001 8.66667C8.36668 8.66667 8.66668 8.36667 8.66668 8V1.66667C8.66668 1.29333 8.36668 1 8.00001 1C7.62668 1 7.33335 1.29333 7.33335 1.66667ZM13.9867 10.56L8.83335 7.69333C8.52001 7.52 8.44001 7.48 8.25335 7.44C8.07335 7.4 7.89335 7.4 7.71335 7.44C7.69335 7.44 7.69335 7.44 7.67335 7.44667C7.50668 7.48667 7.42668 7.52 7.13335 7.68L1.98001 10.54C1.65335 10.7133 1.54001 11.12 1.72001 11.44C1.89335 11.76 2.30001 11.8733 2.62001 11.6933L7.76668 8.82667C7.92668 8.73333 7.96668 8.71333 7.96668 8.71333C7.96001 8.71333 7.96001 8.71333 7.96001 8.71333C7.96001 8.70667 7.96001 8.70667 7.96001 8.70667C7.94668 8.7 7.98668 8.72 8.15335 8.81333L13.3 11.6733C13.62 11.8467 14.0267 11.7333 14.2 11.4133C14.3733 11.0867 14.26 10.68 13.94 10.5067L13.9867 10.56Z" fill="url(#paint0_linear_707_36708)"/>
<path d="M13.34 4.26667L7.67335 7.41333C7.34668 7.58667 7.23335 7.99333 7.41335 8.31333C7.58668 8.63333 7.99335 8.74667 8.31335 8.56667L13.98 5.41333C14.3 5.23333 14.4133 4.82667 14.2333 4.50667C14.0533 4.18 13.6467 4.06667 13.3267 4.24667L13.34 4.26667ZM8.32002 7.41333L2.65335 4.26C2.32668 4.08 1.92002 4.19333 1.74668 4.51333C1.56668 4.83333 1.68002 5.24 2.00002 5.41333L7.66668 8.56C7.98668 8.73333 8.39335 8.62 8.56668 8.3C8.74002 7.97333 8.62668 7.56667 8.30668 7.39333L8.32002 7.41333ZM7.32668 7.99333V14.3267C7.32668 14.6933 7.62002 14.9933 7.99335 14.9933C8.36002 14.9933 8.66002 14.6933 8.66002 14.3267V7.98667C8.66002 7.61333 8.36002 7.32 7.99335 7.32C7.62002 7.32 7.32668 7.61333 7.32668 7.98667V7.99333ZM14.66 10.6933V5.28C14.66 4.90667 14.6533 4.80667 14.5867 4.62C14.5267 4.44 14.4267 4.27333 14.3 4.13333C14.1667 3.98667 14.08 3.93333 13.76 3.75333L8.82668 1.00667C8.51335 0.833333 8.43335 0.793333 8.25335 0.753333C8.07335 0.713333 7.88668 0.713333 7.71335 0.746666C7.69335 0.746666 7.69335 0.746666 7.67335 0.753333C7.50668 0.793333 7.42668 0.826666 7.13335 0.986666L2.19335 3.72667C1.97335 3.84667 1.90668 3.88 1.81335 3.95333C1.75335 3.99333 1.70002 4.04 1.64668 4.09333C1.51335 4.22667 1.42002 4.39333 1.36002 4.57333C1.29335 4.75333 1.28668 4.85333 1.28668 5.22667V10.6333C1.28668 11 1.28668 11.1 1.35335 11.2867C1.40668 11.4667 1.50668 11.6267 1.63335 11.7667C1.76002 11.9067 1.84668 11.96 2.16668 12.14L7.10002 14.88C7.40002 15.0467 7.48668 15.0867 7.66668 15.1267C7.84002 15.16 8.02668 15.16 8.20002 15.12C8.38002 15.08 8.46668 15.04 8.76668 14.8667L13.6933 12.12C14.0133 11.94 14.0933 11.8867 14.2267 11.74C14.3533 11.6 14.4467 11.4333 14.5067 11.2533C14.5667 11.0667 14.5733 10.9667 14.5733 10.5933L14.66 10.6933ZM13.3267 10.6933C13.3267 10.8933 13.32 10.9333 13.3267 10.9267C13.3267 10.92 13.2933 10.94 13.12 11.04L8.18002 13.78C8.01335 13.8667 7.97335 13.8867 7.98002 13.8867C7.98002 13.88 7.98002 13.88 7.98002 13.8867C7.98668 13.8867 7.94668 13.8667 7.78002 13.7733L2.84002 11.0267C2.66002 10.9267 2.62668 10.9 2.63335 10.9067C2.62668 10.9 2.62668 10.9 2.62668 10.9C2.62668 10.9067 2.62668 10.86 2.62668 10.66V5.24667C2.62668 5.04 2.62668 5 2.62668 5.00667C2.62002 5.00667 2.62002 5.00667 2.62668 5.00667C2.61335 5.01333 2.61335 5.01333 2.60668 5.02C2.62668 5 2.67335 4.97333 2.82668 4.88667L7.76002 2.14C7.92002 2.04667 7.96002 2.02667 7.96002 2.02667C7.95335 2.02667 7.95335 2.02667 7.95335 2.02667C7.95335 2.02 7.94668 2.02 7.95335 2.02667C7.94002 2.02 7.98002 2.04 8.14668 2.13333L13.08 4.87333C13.2533 4.96667 13.2867 4.99333 13.28 4.98667C13.2733 4.98 13.2733 4.98 13.2733 4.98C13.2667 4.96667 13.2733 5.01333 13.2733 5.21333V10.62L13.3267 10.6933Z" fill="url(#paint1_linear_707_36708)"/>
<defs>
<linearGradient id="paint0_linear_707_36708" x1="7.95784" y1="1" x2="7.95784" y2="11.7789" gradientUnits="userSpaceOnUse">
<stop stop-color="#FAFAFA"/>
<stop offset="1" stop-color="#8C8C8C"/>
</linearGradient>
<linearGradient id="paint1_linear_707_36708" x1="7.97335" y1="0.722443" x2="7.97335" y2="15.1509" gradientUnits="userSpaceOnUse">
<stop stop-color="#FAFAFA"/>
<stop offset="1" stop-color="#8C8C8C"/>
</linearGradient>
</defs>
</svg>
