<svg width="16" height="16" viewBox="0 0 16 16" fill="none" xmlns="http://www.w3.org/2000/svg">
<path opacity="0.5" d="M3.03333 10.2733C2.38666 9.84 1.99333 9.12 1.99333 8.32667C1.99333 7.11333 2.91333 6.11333 4.10666 6C4.40666 5.96667 4.65333 5.74 4.7 5.44C4.96 3.84 6.34666 2.64667 7.98666 2.64667C9.61999 2.64667 11.0067 3.83333 11.2733 5.43333C11.32 5.72667 11.5667 5.96 11.8667 5.98667C13.0533 6.09333 13.98 7.1 13.98 8.30667C13.98 9.09333 13.58 9.81333 12.94 10.2467C12.6333 10.4467 12.5467 10.86 12.7533 11.1667C12.9533 11.4667 13.3667 11.5533 13.6733 11.3467C14.68 10.6667 15.3 9.53333 15.3 8.29333C15.3 6.39333 13.8467 4.81333 11.9733 4.64L12.5667 5.19333C12.1933 2.95333 10.2533 1.28667 7.95999 1.28667C5.65999 1.28667 3.72 2.94667 3.35333 5.18667L3.94666 4.62667C2.06666 4.8 0.619995 6.37333 0.619995 8.27333C0.619995 9.50667 1.23333 10.64 2.24666 11.32C2.54666 11.52 2.96666 11.44 3.16666 11.1333C3.36666 10.8267 3.28666 10.4067 2.98 10.2067L3.03333 10.2733Z" fill="url(#paint0_linear_707_36712)"/>
<path d="M5.79999 11.1333L8.46665 8.46667C8.72665 8.2 8.72665 7.78 8.46665 7.52C8.19999 7.25333 7.77999 7.25333 7.51999 7.52L4.85332 10.1867C4.58665 10.4467 4.58665 10.8667 4.85332 11.1267C5.11332 11.3867 5.53332 11.3867 5.79332 11.1267L5.79999 11.1333ZM7.51999 8.46667L10.1867 11.1333C10.4467 11.3933 10.8667 11.3933 11.1267 11.1333C11.3867 10.8667 11.3867 10.4467 11.1267 10.1867L8.45999 7.52C8.19332 7.25333 7.77332 7.25333 7.51332 7.52C7.24665 7.78 7.24665 8.2 7.51332 8.46L7.51999 8.46667ZM7.31999 7.99333V13.9933C7.31999 14.36 7.61332 14.66 7.98665 14.66C8.35332 14.66 8.65332 14.36 8.65332 13.9933V7.99333C8.65332 7.62 8.35332 7.32667 7.98665 7.32667C7.61332 7.32667 7.31999 7.62 7.31999 7.99333Z" fill="url(#paint1_linear_707_36712)"/>
<defs>
<linearGradient id="paint0_linear_707_36712" x1="7.96" y1="1.28667" x2="7.96" y2="11.4596" gradientUnits="userSpaceOnUse">
<stop stop-color="#FAFAFA"/>
<stop offset="1" stop-color="#8C8C8C"/>
</linearGradient>
<linearGradient id="paint1_linear_707_36712" x1="7.98749" y1="7.32" x2="7.98749" y2="14.66" gradientUnits="userSpaceOnUse">
<stop stop-color="#FAFAFA"/>
<stop offset="1" stop-color="#8C8C8C"/>
</linearGradient>
</defs>
</svg>
